<svg width="12" height="22" viewBox="0 0 12 22" fill="none" xmlns="http://www.w3.org/2000/svg">
<path d="M0.219175 10.47L10.2192 0.469999C10.3614 0.337519 10.5494 0.265398 10.7437 0.268826C10.938 0.272253 11.1234 0.350965 11.2608 0.488379C11.3982 0.625792 11.4769 0.811176 11.4804 1.00548C11.4838 1.19978 11.4117 1.38783 11.2792 1.53L1.81043 11L11.2792 20.47C11.4117 20.6122 11.4838 20.8002 11.4804 20.9945C11.4769 21.1888 11.3982 21.3742 11.2608 21.5116C11.1234 21.649 10.938 21.7277 10.7437 21.7312C10.5494 21.7346 10.3614 21.6625 10.2192 21.53L0.219175 11.53C0.0787249 11.3894 -0.000164032 11.1988 -0.000164032 11C-0.000164032 10.8013 0.0787249 10.6106 0.219175 10.47Z" fill="black"/>
</svg>
