<svg width="30" height="24" viewBox="0 0 30 24" fill="none" xmlns="http://www.w3.org/2000/svg">
<path d="M5.80531 0.739936C5.668 0.612494 5.48798 0.541049 5.30065 0.539657C5.11333 0.538266 4.93226 0.607028 4.79308 0.732416C4.6539 0.857804 4.56668 1.03074 4.54859 1.21719C4.53049 1.40365 4.58283 1.59013 4.69531 1.73994L7.30531 4.61494C2.64531 7.35244 0.651556 11.7399 0.565306 11.9362C0.522571 12.0322 0.500488 12.1361 0.500488 12.2412C0.500488 12.3463 0.522571 12.4502 0.565306 12.5462C0.607806 12.6424 1.64781 14.9487 3.97031 17.2712C6.12531 19.4237 9.82781 21.9899 15.2503 21.9899C17.5168 22.0037 19.7592 21.5238 21.8216 20.5837L24.6966 23.7449C24.8305 23.8921 25.0174 23.9801 25.2162 23.9895C25.415 23.9988 25.6094 23.9289 25.7566 23.7949C25.9038 23.661 25.9917 23.4741 26.0011 23.2753C26.0105 23.0765 25.9405 22.8821 25.8066 22.7349L5.80531 0.739936ZM11.8828 9.65494L17.5078 15.8449C16.6633 16.3726 15.6603 16.587 14.6738 16.4507C13.6873 16.3144 12.7801 15.8359 12.1104 15.0989C11.4406 14.3619 11.051 13.4132 11.0094 12.4182C10.9678 11.4232 11.2769 10.4453 11.8828 9.65494ZM15.2503 20.4899C11.3278 20.4899 7.90281 19.0624 5.06906 16.2487C3.88087 15.0684 2.87561 13.7172 2.08656 12.2399C2.62281 11.2149 4.59906 7.84244 8.33656 5.75119L10.8616 8.52744C9.96257 9.59271 9.48116 10.9483 9.50689 12.3419C9.53261 13.7356 10.0637 15.0725 11.0014 16.1039C11.9391 17.1352 13.2195 17.7909 14.6044 17.9488C15.9893 18.1067 17.3845 17.7562 18.5303 16.9624L20.7566 19.4124C19.0112 20.1347 17.1392 20.501 15.2503 20.4899ZM16.0503 8.06494C15.8549 8.02764 15.6823 7.91424 15.5704 7.74967C15.4586 7.58511 15.4168 7.38287 15.4541 7.18744C15.4914 6.992 15.6048 6.81939 15.7693 6.70757C15.9339 6.59576 16.1361 6.55389 16.3316 6.59119C17.5528 6.82844 18.6647 7.454 19.5016 8.37462C20.3384 9.29524 20.8553 10.4616 20.9753 11.6999C20.9844 11.798 20.9741 11.8969 20.945 11.991C20.9159 12.0852 20.8685 12.1726 20.8056 12.2484C20.7427 12.3242 20.6655 12.3869 20.5784 12.4328C20.4912 12.4788 20.3959 12.5071 20.2978 12.5162H20.2278C20.0403 12.517 19.8592 12.4475 19.7204 12.3214C19.5815 12.1953 19.495 12.0217 19.4778 11.8349C19.3887 10.9212 19.0069 10.0607 18.3893 9.38145C17.7718 8.70218 16.9514 8.24044 16.0503 8.06494ZM29.9353 12.5462C29.8841 12.6612 28.6391 15.4212 25.8278 17.9362C25.7549 18.0045 25.669 18.0576 25.5753 18.0923C25.4816 18.127 25.3819 18.1426 25.282 18.1382C25.1822 18.1338 25.0842 18.1095 24.9939 18.0668C24.9035 18.024 24.8227 17.9636 24.756 17.8891C24.6894 17.8146 24.6383 17.7276 24.6058 17.6331C24.5732 17.5386 24.5599 17.4385 24.5666 17.3388C24.5733 17.2391 24.5998 17.1417 24.6447 17.0524C24.6896 16.9631 24.7518 16.8836 24.8278 16.8187C26.2809 15.5131 27.4946 13.9635 28.4141 12.2399C27.6248 10.7628 26.6196 9.41163 25.4316 8.23119C22.5978 5.41744 19.1728 3.98994 15.2503 3.98994C14.4258 3.98895 13.6026 4.05584 12.7891 4.18994C12.6911 4.2084 12.5904 4.20715 12.493 4.18627C12.3955 4.16538 12.3032 4.12528 12.2214 4.0683C12.1396 4.01131 12.07 3.9386 12.0166 3.85441C11.9633 3.77021 11.9272 3.67622 11.9106 3.57794C11.894 3.47965 11.8971 3.37904 11.9199 3.28198C11.9426 3.18493 11.9844 3.09337 12.0429 3.01267C12.1014 2.93197 12.1755 2.86374 12.2606 2.81198C12.3458 2.76021 12.4405 2.72595 12.5391 2.71119C13.4351 2.56244 14.342 2.48843 15.2503 2.48994C20.6728 2.48994 24.3753 5.05744 26.5303 7.20994C28.8528 9.53244 29.8928 11.8349 29.9353 11.9362C29.978 12.0322 30.0001 12.1361 30.0001 12.2412C30.0001 12.3463 29.978 12.4502 29.9353 12.5462Z" fill="#979797"/>
</svg>
